<?xml version="1.0" standalone="no"?>
<!DOCTYPE svg PUBLIC "-//W3C//DTD SVG 20010904//EN"
 "http://www.w3.org/TR/2001/REC-SVG-20010904/DTD/svg10.dtd">
<svg version="1.0" xmlns="http://www.w3.org/2000/svg"
 width="512.000000pt" height="512.000000pt" viewBox="0 0 512.000000 512.000000"
 preserveAspectRatio="xMidYMid meet">
<metadata>
Created by potrace 1.14, written by Peter Selinger 2001-2017
</metadata>
<g transform="translate(0.000000,512.000000) scale(0.100000,-0.100000)"
fill="#000000" stroke="none">
<path d="M2379 5116 c-2 -2 -35 -6 -74 -10 -77 -6 -232 -31 -304 -47 -25 -6
-53 -12 -61 -14 -52 -12 -207 -61 -289 -92 -141 -52 -222 -92 -426 -207 -51
-29 -182 -123 -272 -194 -190 -152 -382 -363 -523 -571 -176 -263 -318 -596
-374 -881 -44 -222 -51 -299 -50 -550 0 -221 5 -284 39 -475 12 -64 64 -265
87 -330 235 -681 732 -1230 1378 -1520 197 -88 443 -163 635 -191 22 -3 51 -8
65 -10 174 -29 566 -26 742 6 29 5 69 12 88 15 241 40 576 165 808 302 465
275 840 691 1046 1163 21 47 42 94 47 105 37 81 111 335 134 460 4 22 9 49 11
60 21 117 29 236 28 450 0 181 -6 260 -29 400 -57 335 -188 676 -367 952 -357
552 -895 942 -1523 1103 -66 17 -135 33 -155 36 -19 3 -46 7 -60 9 -14 3 -41
7 -60 10 -19 3 -53 7 -75 11 -46 6 -460 16 -466 10z m506 -420 c712 -111 1315
-560 1626 -1211 78 -163 147 -374 173 -530 22 -126 28 -202 31 -355 3 -200 -5
-292 -41 -475 -102 -512 -404 -986 -828 -1300 -315 -233 -668 -369 -1071 -414
-134 -15 -434 -5 -566 18 -231 41 -384 90 -583 184 -434 207 -792 564 -1006
1002 -111 227 -182 472 -208 720 -10 87 -8 424 2 475 2 14 7 43 10 66 44 349
215 742 450 1034 83 103 253 271 359 353 91 72 294 202 331 213 11 4 32 14 46
24 35 24 270 114 360 138 63 17 183 44 192 43 2 0 21 4 43 9 22 5 72 12 110
16 39 3 72 8 74 10 11 10 401 -6 496 -20z"/>
<path d="M1760 2560 l0 -1200 179 0 178 0 133 80 c73 44 134 80 135 80 2 0 34
19 71 42 78 47 474 282 519 308 17 9 99 59 184 109 84 51 174 104 200 118 25
14 53 32 62 39 8 8 18 14 21 14 3 0 48 25 99 57 52 31 103 61 114 67 11 6 62
36 112 66 l93 55 0 165 -1 165 -87 52 c-48 28 -195 115 -327 194 -132 78 -400
236 -595 352 -195 115 -371 220 -390 232 -19 12 -54 34 -77 48 -24 15 -45 27
-47 27 -3 0 -53 29 -112 65 l-107 65 -179 0 -178 0 0 -1200z m430 690 c0 -5 4
-10 9 -10 5 0 134 -74 286 -165 153 -91 279 -165 281 -165 1 0 45 -26 97 -59
52 -32 98 -60 103 -62 31 -13 374 -222 374 -229 0 -4 -55 -40 -122 -80 -68
-40 -215 -128 -328 -195 -113 -67 -306 -181 -430 -254 -124 -74 -242 -144
-262 -157 l-38 -24 0 705 c0 620 2 705 15 705 8 0 15 -4 15 -10z"/>
</g>
</svg>
